<?xml version="1.0" encoding="UTF-8"?>
<svg xmlns="http://www.w3.org/2000/svg" xmlns:xlink="http://www.w3.org/1999/xlink" width="30px" height="43px" viewBox="0 0 30 43" version="1.1">
<g id="surface1">
<path style=" stroke:none;fill-rule:evenodd;fill:rgb(50.980392%,7.843137%,7.843137%);fill-opacity:1;" d="M 14.050781 7.246094 C 12.722656 7.46875 11.582031 8.070312 10.6875 9.015625 C 9.503906 10.261719 9.035156 11.523438 9.132812 13.207031 C 9.230469 14.953125 10.074219 16.582031 11.179688 17.160156 C 11.382812 17.265625 11.847656 17.511719 12.207031 17.710938 C 13.1875 18.246094 13.941406 18.40625 15.199219 18.347656 C 15.945312 18.3125 16.476562 18.226562 17.023438 18.046875 C 17.449219 17.910156 17.769531 17.84375 17.734375 17.902344 C 17.648438 18.035156 18.457031 17.46875 18.859375 17.109375 C 19.628906 16.421875 20.285156 15.347656 20.550781 14.332031 C 20.742188 13.597656 20.742188 12.21875 20.546875 11.476562 C 20.207031 10.179688 19.210938 8.832031 18.03125 8.078125 C 16.984375 7.410156 15.242188 7.046875 14.050781 7.246094 "/>
<path style=" stroke:none;fill-rule:evenodd;fill:rgb(92.156863%,26.666667%,20.392157%);fill-opacity:1;" d="M 13.199219 0.492188 C 6.902344 1.304688 1.902344 6.898438 1.898438 13.125 C 1.898438 14.378906 2.066406 15.246094 2.5625 16.5625 C 3.289062 18.5 4.214844 20.101562 5.886719 22.320312 C 8.910156 26.34375 10.960938 30.164062 12.820312 35.253906 C 13.617188 37.433594 14.582031 40.78125 14.753906 41.96875 C 14.855469 42.667969 14.960938 42.820312 15.09375 42.472656 C 15.152344 42.320312 15.199219 42.089844 15.199219 41.964844 C 15.199219 41.546875 16.078125 38.304688 16.601562 36.792969 C 16.882812 35.972656 17.164062 35.160156 17.222656 34.988281 C 17.320312 34.695312 17.296875 34.636719 16.886719 34.144531 C 15.894531 32.960938 15.507812 32.257812 15.152344 30.984375 C 14.894531 30.058594 14.90625 28.292969 15.179688 27.339844 C 15.796875 25.179688 17.222656 23.5 19.25 22.542969 C 20.4375 21.984375 21.375 21.808594 22.789062 21.878906 C 23.425781 21.910156 24.039062 21.953125 24.148438 21.96875 C 24.550781 22.027344 26.464844 18.886719 27.292969 16.816406 C 27.90625 15.277344 28.046875 14.558594 28.035156 13.058594 C 28.003906 9.816406 26.804688 6.914062 24.453125 4.390625 C 23.324219 3.179688 21.316406 1.859375 19.648438 1.238281 C 18.15625 0.679688 17.160156 0.492188 15.449219 0.449219 C 14.570312 0.425781 13.558594 0.445312 13.199219 0.492188 M 14.050781 7.246094 C 12.722656 7.46875 11.582031 8.070312 10.6875 9.015625 C 9.503906 10.261719 9.035156 11.523438 9.132812 13.207031 C 9.1875 14.21875 9.417969 15.015625 9.867188 15.777344 C 10.171875 16.296875 10.875 17.078125 11.039062 17.082031 C 11.238281 17.085938 12.199219 17.746094 12.121094 17.828125 C 12.082031 17.871094 12.101562 17.878906 12.164062 17.84375 C 12.226562 17.804688 12.476562 17.863281 12.714844 17.972656 C 12.953125 18.082031 13.085938 18.167969 13.003906 18.171875 C 12.691406 18.175781 13.070312 18.363281 13.5 18.417969 C 13.847656 18.460938 13.90625 18.449219 13.75 18.371094 C 13.570312 18.277344 13.574219 18.273438 13.800781 18.320312 C 13.9375 18.347656 14.433594 18.378906 14.898438 18.390625 L 15.75 18.410156 L 15 18.476562 C 14.300781 18.539062 14.320312 18.542969 15.25 18.519531 C 16.332031 18.488281 16.710938 18.40625 16.484375 18.253906 C 16.398438 18.199219 16.457031 18.191406 16.640625 18.234375 C 16.816406 18.277344 16.90625 18.265625 16.871094 18.207031 C 16.835938 18.152344 17.03125 18.039062 17.304688 17.953125 C 17.589844 17.859375 17.773438 17.839844 17.734375 17.898438 C 17.652344 18.035156 18.453125 17.46875 18.859375 17.109375 C 19.628906 16.421875 20.285156 15.347656 20.550781 14.332031 C 20.742188 13.597656 20.742188 12.21875 20.546875 11.476562 C 20.207031 10.179688 19.210938 8.832031 18.03125 8.078125 C 16.984375 7.410156 15.242188 7.046875 14.050781 7.246094 M 12.300781 17.917969 C 12.300781 17.945312 12.390625 18.015625 12.5 18.074219 C 12.609375 18.132812 12.699219 18.15625 12.699219 18.128906 C 12.699219 18.101562 12.609375 18.03125 12.5 17.972656 C 12.390625 17.917969 12.300781 17.890625 12.300781 17.917969 M 21.898438 22.898438 C 20.121094 23.1875 19.113281 23.617188 18.0625 24.53125 C 16.914062 25.535156 16 27.546875 16 29.078125 C 16 30.453125 16.65625 32.238281 17.539062 33.265625 C 18.945312 34.902344 21.09375 35.710938 23.226562 35.40625 C 24.828125 35.175781 25.890625 34.664062 26.953125 33.609375 C 28.398438 32.171875 29.132812 29.839844 28.710938 28.003906 C 28.394531 26.628906 27.886719 25.695312 26.941406 24.75 C 26.347656 24.160156 26.050781 23.949219 25.285156 23.597656 C 24.125 23.0625 22.703125 22.769531 21.898438 22.898438 M 21.84375 24.867188 C 21.054688 25.210938 20.878906 26.28125 21.515625 26.910156 C 21.78125 27.175781 21.804688 27.238281 21.683594 27.386719 C 21.609375 27.480469 21.230469 27.941406 20.835938 28.417969 C 20.035156 29.382812 19.785156 29.917969 20.027344 30.160156 C 20.246094 30.378906 20.664062 30.128906 21.316406 29.394531 C 21.605469 29.066406 21.878906 28.800781 21.921875 28.800781 C 21.964844 28.800781 22 29.097656 22 29.460938 C 22 30.082031 21.96875 30.175781 21.460938 31.023438 C 20.375 32.851562 20.191406 33.371094 20.546875 33.664062 C 20.800781 33.875 21.234375 33.441406 21.847656 32.367188 C 22.164062 31.816406 22.449219 31.394531 22.484375 31.429688 C 22.515625 31.464844 22.792969 31.921875 23.097656 32.445312 C 23.675781 33.445312 24.039062 33.820312 24.328125 33.707031 C 24.75 33.546875 24.320312 32.375 23.1875 30.601562 C 22.941406 30.21875 22.898438 30.050781 22.898438 29.476562 C 22.898438 29.101562 22.941406 28.800781 22.988281 28.800781 C 23.039062 28.800781 23.273438 29.039062 23.515625 29.335938 C 24.070312 30.023438 24.589844 30.339844 24.847656 30.152344 C 25.1875 29.90625 24.894531 29.382812 23.613281 27.917969 L 22.972656 27.191406 L 23.242188 26.941406 C 23.535156 26.671875 23.699219 26.328125 23.699219 25.984375 C 23.699219 25.625 23.355469 25.101562 22.992188 24.910156 C 22.59375 24.695312 22.265625 24.683594 21.84375 24.867188 "/>
</g>
</svg>
